<svg xmlns="http://www.w3.org/2000/svg" width="31.409" height="41.49" viewBox="0 0 31.409 41.49"><g transform="translate(-137.5 -22)"><path d="M175.98,28.98V63.49a6.98,6.98,0,0,1-6.98-6.98V22A6.98,6.98,0,0,1,175.98,28.98Z" transform="translate(-19.286)" fill="#424242" fill-rule="evenodd"/><path d="M207.48,28.98V63.49a6.98,6.98,0,0,1-6.98-6.98V22A6.98,6.98,0,0,1,207.48,28.98Z" transform="translate(-38.571)" fill="#7f7f7f" fill-rule="evenodd"/><path d="M144.48,28.98V63.49a6.98,6.98,0,0,1-6.98-6.98V22A6.98,6.98,0,0,1,144.48,28.98Z" fill="#7f7f7f" fill-rule="evenodd"/></g></svg>